<?xml version="1.0" encoding="utf-8"?>
<!-- Generator: Adobe Illustrator 23.0.3, SVG Export Plug-In . SVG Version: 6.00 Build 0)  -->
<svg version="1.1" id="Capa_1" xmlns="http://www.w3.org/2000/svg" xmlns:xlink="http://www.w3.org/1999/xlink" x="0px" y="0px"
	 viewBox="0 0 1200 1200" enable-background="new 0 0 1200 1200" xml:space="preserve">
<path fill="#E1967E" d="M609.396,745.719c5.442,0,10.885-2.069,15.027-6.211c4.015-4.014,6.227-9.351,6.227-15.029
	c0-5.678-2.213-11.015-6.228-15.029c-4.012-4.01-9.349-6.221-15.026-6.221s-11.013,2.211-15.027,6.225
	c-4.014,4.01-6.225,9.348-6.225,15.026c0,5.678,2.211,11.015,6.227,15.032C598.513,743.649,603.955,745.722,609.396,745.719z
	 M605.367,720.451c1.077-1.077,2.508-1.668,4.029-1.668c1.522,0,2.952,0.591,4.027,1.668c0.002,0,0.002,0,0.003,0.003
	c1.075,1.073,1.668,2.501,1.668,4.024c0,1.523-0.594,2.954-1.669,4.031c-2.221,2.221-5.838,2.221-8.056,0
	c-1.077-1.077-1.669-2.508-1.669-4.031C603.7,722.956,604.292,721.528,605.367,720.451z M694.989,569.166
	c0-11.721-9.533-21.254-21.252-21.254c-11.719,0-21.252,9.533-21.252,21.254s9.533,21.254,21.252,21.254
	C685.456,590.42,694.989,580.887,694.989,569.166z M668.04,569.166c0-3.143,2.555-5.698,5.697-5.698
	c3.141,0,5.697,2.555,5.697,5.698c0,3.143-2.555,5.698-5.697,5.698C670.595,574.865,668.04,572.309,668.04,569.166z
	 M594.383,398.822c-8.287,8.284-8.287,21.77,0,30.054c4.142,4.145,9.586,6.215,15.027,6.215c5.442,0,10.885-2.069,15.027-6.215
	c8.287-8.284,8.287-21.77,0-30.054C616.153,390.531,602.667,390.531,594.383,398.822z M613.439,417.878
	c-2.221,2.221-5.837,2.221-8.058,0s-2.221-5.837,0-8.058c1.111-1.111,2.571-1.664,4.029-1.664s2.918,0.554,4.029,1.664
	C615.66,412.042,615.66,415.657,613.439,417.878z M454.098,328.255c-11.719,0-21.252,9.533-21.252,21.254
	c0,11.717,9.533,21.25,21.252,21.25c11.719,0,21.252-9.533,21.252-21.25C475.35,337.788,465.817,328.255,454.098,328.255z
	 M454.098,355.204c-3.141,0-5.697-2.555-5.697-5.695c0-3.143,2.555-5.698,5.697-5.698s5.697,2.555,5.697,5.698
	C459.794,352.648,457.239,355.204,454.098,355.204z M298.779,392.584c-5.676,0-11.013,2.211-15.029,6.225
	c-8.282,8.287-8.282,21.767,0,30.054c0,0,0,0,0.002,0c4.014,4.014,9.351,6.225,15.027,6.225c5.678,0,11.015-2.211,15.027-6.225
	c8.288-8.284,8.288-21.77,0.002-30.054C309.794,394.795,304.457,392.584,298.779,392.584z M302.806,417.865
	c-2.15,2.15-5.904,2.154-8.055,0c-2.221-2.221-2.221-5.837-0.002-8.058c2.154-2.157,5.904-2.154,8.058,0
	C305.029,412.028,305.029,415.643,302.806,417.865z M1075.859,476.43c1.106-4.381,1.71-8.808,1.69-13.378
	c0-6.046-0.942-12.17-2.866-18.685c-1.279-4.412-3.437-9.749-8.811-11.856c-3.776-1.479-7.974-0.854-12.463,1.847
	c-2.115,1.263-4.016,2.285-5.963,3.197c-3.15,1.563-6.664,2.974-10.742,4.321c-9.663,3.193-19.696,4.973-30.318,6.856
	c-5.703,1.009-11.601,2.056-17.416,3.339c-10.051,2.22-17.498-1.711-19.944-10.474c-0.002-0.005-0.002-0.01-0.003-0.015
	c-0.003-0.01-0.01-0.019-0.013-0.029c0,0,0-0.001-0.001-0.002c-0.145-0.533-0.299-1.084-0.419-1.769
	c-1.389-7.278-4.179-13.993-8.507-20.481c-5.484-8.328-12.818-15.265-18.712-20.839c-3.97-3.754-8.316-6.978-12.521-10.097
	c-9.049-6.711-16.864-12.507-19.598-21.993c-0.682-2.269-1.026-4.659-1.055-7.379c-0.081-4.253-2.834-7.119-4.48-8.831
	c-0.307-0.321-0.628-0.625-0.871-0.945c-0.063-0.081-0.125-0.162-0.191-0.24c-0.052-0.068-0.108-0.138-0.165-0.209
	c-2.157-2.812-4.429-5.577-6.703-8.338c-1.771-2.154-3.543-4.304-5.253-6.481c-8.981-11.447-14.146-21.247-12.146-34.723
	c0.9-6.117-3.19-11.174-6.476-15.238c-0.439-0.543-0.864-1.067-1.249-1.566c-3.423-4.436-6.74-9.456-10.139-15.353
	c-4.264-7.376-8.058-15.107-12.073-23.289c-2.577-5.253-5.192-10.58-7.992-15.934c-0.066-0.128-0.137-0.253-0.211-0.378
	c-6.316-12.136-12.406-21.939-19.218-30.912l-1.141-1.489c-0.186-0.24-0.385-0.466-0.596-0.679l-2.681-2.703
	c-0.042-0.042-0.082-0.084-0.125-0.126l-24.816-25.027c0.407-3.246,0.635-6.523,0.635-9.821c0-4.294-3.482-7.778-7.778-7.778
	c-2.806,0-5.243,1.501-6.611,3.728l-7.272-7.333c-2.079-2.096-5.158-2.832-7.962-1.911c-2.479,0.82-5.837,0.969-10.519,0.479
	c-29.595-3.197-53.195-10.1-74.275-21.723c-8.635-4.751-16.45-7.147-23.37-7.192c-2.344-0.84-4.889-0.475-6.896,0.858
	c-1.542,0.392-3.048,0.877-4.478,1.554c-9.324,4.422-15.507,14.573-18.379,30.166c-0.397,2.157-1.374,3.95-2.09,4.821
	c-2.623-0.516-5.418-0.979-8.269-1.452l-3.977-0.665c-5.58-0.982-18.648-3.285-21.355-7.555c-2.508-3.973-5.389-7.491-8.552-10.441
	c-0.015-0.014-0.03-0.024-0.045-0.038c-0.028-0.026-0.059-0.048-0.088-0.073c-10.561-9.827-22.736-12.742-34.513-15.549
	c-3.639-0.868-7.074-1.688-10.483-2.711c-10.382-3.096-13.751-8.547-12.438-20.096c1.885-16.207-1.158-28.167-9.28-36.539
	c-8.996-9.337-21.353-9.675-36.754-0.989c-10.293,5.847-22.869,6.941-39.576,3.437c-26.451-5.516-51.605-0.405-76.895,15.63
	c-14.531,9.216-25.482,11.548-36.597,7.805c-0.184-0.061-0.371-0.115-0.562-0.162c-0.181-0.057-0.37-0.122-0.584-0.203
	c-3.285-1.225-6.642-2.988-9.972-5.236c-7.307-4.945-13.248-4.79-16.941-3.791c-3.55,0.959-8.524,3.649-12.057,11.008
	c-4.459,9.263-11.873,16.626-23.259,23.127c-1.151,0.641-2.338,1.286-3.438,1.887c-11.211,5.917-19.01,15.422-23.199,28.209
	c-0.015,0.04-0.03,0.079-0.044,0.12c-0.027,0.084-0.063,0.16-0.09,0.244c-1.571,4.854-2.621,10.235-3.212,16.447
	c-0.619,6.427-3.354,10.181-7.786,15.596c-5.074,6.208-11.91,10.63-19.147,15.309c-2.528,1.637-5.062,3.278-7.503,4.973
	c-0.119,0.081-0.215,0.159-0.333,0.241c-0.001,0.001-0.003,0.002-0.004,0.003c-6.522,4.501-11.25,8.634-15.245,13.361
	c-8.556,10.134-14.516,21.423-20.28,32.34c-5.413,10.249-10.524,19.927-17.529,28.468c-16.401,19.917-18.72,40.286-7.087,62.273
	c7.67,14.448,5.599,32.654-5.276,46.383c-11.635,14.685-7.962,25.615-4.075,37.191l0.262,0.78c0.636,1.921,0.186,5.04-0.292,8.348
	c-1.031,7.147-2.591,17.952,7.202,26.604c0.279,0.267,0.518,0.604,0.773,0.925c1.276,1.597,3.202,4.01,6.463,5.121
	c13.329,4.605,23.367,16.71,30.681,36.988c1.98,5.536,4.448,10.671,7.531,15.677c7.503,12.281,17.341,21.504,26.856,30.422
	l3.04,2.853c20.915,19.664,42.121,27.114,64.761,22.834c5.195-0.945,10.524-2.566,15.834-4.807
	c8.493-3.578,18.482-6.876,28.233-4.152c2.287,0.618,4.498,1.543,6.544,2.731c5.781,3.383,12.219,1.367,16.913-0.108
	c1.031-0.321,2.056-0.648,3.038-0.895c10.029-2.505,19.53-6.309,28.718-9.989c2.252-0.901,4.502-1.803,6.775-2.69
	c4.255-1.671,7.702-2.93,10.897-3.98c5.734-1.921,10.953-3.274,15.947-4.132c5.411-0.925,12.416,0.614,17.812,3.902
	c1.63,1.006,3.004,2.073,4.076,3.167c1.845,1.89,2.883,3.788,3.084,5.631c2.052,19.019,16.099,17.753,22.098,17.203l1.806-0.152
	c2.927-0.219,5.475-1.161,7.525-1.914c1.251-0.463,2.544-0.938,3.352-0.992c2.969-0.226,4.313,0.358,4.493,0.5
	c0.098,0.233,0.199,1.36-0.604,3.447c-4.758,12.403,3.533,16.578,5.182,17.267c2.456,1.047,8.424,2.664,13.388,1.192
	c0,4.375-0.273,8.436-0.832,12.352c-0.675,4.983-1.808,9.79-3.464,14.695c-2.792,8.254-4.385,14.35-5.165,19.738
	c-1.328,8.914-0.453,16.283,2.745,23.189c0.022,0.052,0.042,0.103,0.065,0.154c0.015,0.031,0.026,0.063,0.041,0.095
	c2.491,5.222,6.394,10.225,12.259,15.718c1.317,1.246,2.756,2.532,4.361,3.899c0.069,0.303,0.201,0.581,0.282,0.88
	c0.04,0.112,0.063,0.229,0.109,0.339c1.471,5.151,4.481,9.721,6.994,13.421c0.488,0.719,0.959,1.414,1.401,2.093
	c1.187,1.809,2.434,3.592,3.681,5.374c3.718,5.31,7.231,10.33,8.789,15.826c1.252,4.392,2.209,9.189,3.222,14.266
	c1.921,9.614,3.899,19.529,8.21,28.562c-0.289,3.244,0.38,7.363,3.433,12.058c1.065,1.657,1.984,3.287,2.762,4.897
	c0.008,0.016,0.016,0.032,0.023,0.047c2.123,4.333,3.185,8.588,3.242,13.002c0.113,9.702-4.323,19.438-10.588,32.104l-0.071,0.145
	c-0.004,0.008-0.008,0.015-0.011,0.023l-0.732,1.496c-5.625,11.415-9.49,22.492-11.699,33.226c-0.132,0.434-0.231,0.868-0.285,1.31
	c-4.929,25.492-0.203,48.986,14.227,70.14c12.431,18.253,20.295,39.594,24.743,67.168c0.851,5.29,1.614,11.147,2.329,17.888
	c1.595,15.397,3.406,32.85,16.011,49.316c4.353,5.678,8.571,11.245,12.352,16.933c7.616,11.437,16.2,27.097,14.956,46.862
	c-0.28,4.618,0.567,9.017,2.517,13.071c0.118,0.246,0.248,0.486,0.39,0.712c4.151,8.017,12.421,13.692,22.864,15.633
	c0.024,0.004,0.048,0.005,0.072,0.01c0.08,0.014,0.16,0.021,0.241,0.032c2.323,0.403,4.658,0.616,6.991,0.616
	c2.731,0,5.459-0.273,8.159-0.824c4.603-0.922,8.919-2.555,13.091-4.135c7.447-2.822,13.879-5.263,19.723-2.903
	c11.43,4.568,22.603,4.976,34.115,1.31c0.097-0.023,0.19-0.054,0.285-0.081c0.106-0.035,0.211-0.056,0.317-0.091
	c4.129-1.347,8.361-3.264,13.092-5.87h0.463c3.049,0,5.661-1.772,6.936-4.327c2.037-1.262,4.052-2.543,6.028-3.805l1.131-0.722
	c18.568-11.808,31.671-28.491,44.342-44.628c3.232-4.115,6.465-8.234,9.79-12.268c5.437-6.606,12.804-15.11,21.448-22.172
	c0.474-0.368,0.883-0.8,1.298-1.224c0.124-0.115,0.251-0.224,0.367-0.346c0.051-0.057,0.118-0.102,0.168-0.159
	c3.025-3.357,5.794-9.453,1.998-19.216v-16.186c0.933-1.236,2.202-2.452,3.853-3.659c1.772-1.337,4.086-2.674,7.035-4.064
	c15.211-7.089,34.823-19.556,29.555-45.843c-1.095-5.749-3.393-12.126-7.033-19.525c-0.564-1.138-1.246-2.319-1.944-3.514
	c-0.434-0.742-1.029-1.762-1.49-2.665c0.431-0.285,0.837-0.613,1.208-0.984c4.739-4.738,8.844-9.937,12.322-15.475
	c1.121-1.458,2.232-2.925,3.34-4.398c7.881-10.468,15.326-20.356,27.622-25.527c26.687-11.231,38.847-27.097,40.659-53.057
	c0.424-6.12,0.295-12.949-0.393-20.893c-0.48-5.424-1.068-10.512-1.77-15.323c-0.167-1.145-0.349-2.271-0.53-3.399
	c0.019-0.85-0.048-1.699-0.304-2.514c-0.074-0.305-0.176-0.601-0.254-0.906c-2.246-13.147-5.438-25.446-9.762-37.528
	c-0.125-2.069-0.339-4.27-0.657-6.704c-1.36-10.104-4.259-19.846-7.103-29.413c-0.552-1.742-1.079-3.48-1.58-5.222l-0.154-2.15
	c0.005-0.034,0.01-0.071,0.015-0.105c0.037-0.257,0.068-0.516,0.133-0.814c1.639-7.447,4.113-14.357,7.611-21.22
	c1.992-4.048,4.326-8.031,7.128-12.166c4.686-6.893,10.326-13.814,17.75-21.78c4.208-4.513,8.667-9.03,12.98-13.402
	c3.501-3.548,7-7.096,10.416-10.681c6.763-7.052,12.019-13.01,16.54-18.756c4.75-6.036,11.535-10.674,18.719-15.583
	c1.597-1.094,3.193-2.184,4.768-3.291c7.943-5.573,16.052-12.062,21.556-21.72c4.763-8.422,9.472-17.088,14.389-26.479
	c2.959-5.624,5.884-11.272,8.809-16.923c2.883-5.567,5.766-11.137,8.694-16.703c4.002-7.67,7.131-13.527,10.141-18.979
	c1.025-1.853,1.946-3.737,2.706-5.523c1.312-2.997,2.275-5.996,3.038-9.014C1075.856,476.444,1075.857,476.437,1075.859,476.43z
	 M1041.585,456.649c4.777-1.58,8.953-3.264,12.61-5.081c1.772-0.827,3.595-1.779,5.541-2.893c0.005,0.02,0.01,0.041,0.017,0.061
	c1.507,5.104,2.24,9.79,2.24,14.32c0,0.013,0,0.027,0,0.04c0.009,1.842-0.158,3.654-0.409,5.456
	c-9.638,4.168-19.945,6.292-30.702,6.292h-8.359c-0.707-4.35-1.979-8.579-3.816-12.559
	C1026.338,460.831,1034.042,459.139,1041.585,456.649z M992.321,467.262c3.378-0.744,6.837-1.405,10.295-2.041
	c3.231,5.171,5.002,11.2,5.002,17.397c0,8.801-3.426,17.075-9.65,23.296c-6.218,6.222-14.49,9.648-23.293,9.648
	c-18.165,0-32.944-14.779-32.944-32.944c0-8.791,3.423-17.06,9.638-23.28c0.005-0.005,0.01-0.011,0.015-0.016
	c1.933-1.935,4.113-3.593,6.439-4.982C964.738,465.26,977.814,470.456,992.321,467.262z M561.356,945.851
	c-2.566-6.884-5.537-13.344-8.858-19.522h28.2c2.063,0,4.041-0.82,5.499-2.279l40.217-40.217c0.476-0.054,0.952-0.085,1.428-0.143
	c10.374-1.283,19.468-1.99,27.763-2.152l-57.169,57.167c-2.311,2.312-4.461,4.625-6.508,7.001c-3.231-0.24-6.421-0.361-9.528-0.361
	h-18.354C563.095,945.344,562.197,945.539,561.356,945.851z M540.295,830.493c24.656,15.773,53.889,22.474,83.354,18.869
	c19.073-2.329,34.595-2.967,48.847-1.998l55.101,3.595c0.169,0.01,0.338,0.017,0.506,0.017c0.285,0,0.562-0.052,0.843-0.083
	c0.781,2.396,1.64,4.757,2.565,7.087c-0.574,0.521-1.165,1.015-1.717,1.567c-3.059,3.058-5.614,6.477-7.72,10.125l-50.787-3.329
	c-13.115-0.895-27.528-0.294-45.348,1.907c-32.091,3.94-64.564-2.941-92.055-19.384C535.414,842.905,537.55,836.785,540.295,830.493
	z M546.312,748.487c-4.127-7.646-6.068-17.375-7.947-26.783c-0.654-3.274-1.36-6.589-2.125-9.871l20.711,20.712
	c-2.72,6.379-6.028,12.456-9.885,18.199C546.92,749.965,546.695,749.199,546.312,748.487z M454.084,521.75
	c-6.686,0-13.232,1.414-19.227,4.091c-0.06-0.044-0.125-0.086-0.186-0.129c-3.143-7.983-5.395-16.338-6.635-24.926
	c-0.789-5.237-1.188-10.666-1.191-16.138c0-0.016,0.005-0.03,0.005-0.046v-0.291c0.065-27.048,9.687-52.581,27.23-72.79
	c17.579,20.246,27.211,45.835,27.244,72.946v0.135c0,0.009,0.003,0.019,0.003,0.028c-0.003,14.089-2.749,28.186-7.923,41.26
	C467.375,523.186,460.836,521.75,454.084,521.75z M255.168,540.562c1.061,2.179,2.19,4.32,3.377,6.425
	c-9.943-0.593-19.599-4.376-29.426-11.549c2.246-0.452,4.525-0.76,6.842-0.76C242.896,534.68,249.491,536.724,255.168,540.562z
	 M209.899,480.544c-16.743-22.766-24.039-50.631-20.573-79.055c2.427-20.055,3.099-36.502,2.117-51.774l-2.265-34.473l40.132,40.132
	c-14.09,16.637-21.787,37.491-21.787,59.54c0,23.162,8.477,45.021,23.958,62.047C224.181,477.311,216.948,478.488,209.899,480.544z
	 M245.918,156.745c2.507,1.922,5.187,3.605,7.995,5.064c-1.05,1.271-2.081,2.552-3.236,3.775c-0.495,0.55-1.019,1.073-1.543,1.597
	c-0.137,0.135-0.268,0.277-0.393,0.422c-3.447,3.391-7.197,6.399-11.164,9.047C241.728,171.157,244.993,165.314,245.918,156.745z
	 M397.429,124.324c1.58,4.327,4.064,8.307,7.418,11.661c6.054,6.056,14.106,9.391,22.668,9.391c8.561,0,16.612-3.335,22.665-9.391
	c4.17-4.169,7.013-9.295,8.402-14.874h29.543l-32.006,32.006c-3.038,3.038-3.038,7.96,0,10.998l22.857,22.856l-111.645-45.856
	C378.265,137.516,388.457,131.859,397.429,124.324z M444.002,113.446c-0.033,4.361-1.735,8.455-4.822,11.541
	c-3.116,3.116-7.26,4.834-11.665,4.834c-4.407,0-8.551-1.718-11.668-4.834c-3.116-3.116-4.832-7.258-4.832-11.667
	c0-4.409,1.717-8.551,4.834-11.667c3.116-3.116,7.26-4.834,11.667-4.834c4.405,0,8.549,1.718,11.665,4.834c0.002,0,0.002,0,0.002,0
	c3.089,3.089,4.792,7.189,4.821,11.554c-0.001,0.043-0.013,0.083-0.013,0.126C443.991,113.372,444.001,113.408,444.002,113.446z
	 M516.49,121.112c3.561,3.2,8.132,5.689,13.719,7.446c-2.114,1.729-4.234,3.593-6.329,5.689l-18.871,18.871
	c-3.038,3.038-3.038,7.96,0,10.998l18.871,18.871c8.986,8.986,19.456,15.802,31.121,20.255l20.624,7.872
	c1,2.61,2.096,5.174,3.238,7.714l-8.926,20.345c-5.102,11.454-7.69,23.718-7.69,36.458v20.953
	c-6.559,2.566-12.912,5.706-19.012,9.384V275.63c0-15.373,3.136-30.237,9.32-44.168c0.02-0.044,0.026-0.093,0.044-0.137
	c0.056-0.132,0.084-0.276,0.133-0.411c0.125-0.35,0.255-0.698,0.329-1.06c0.047-0.227,0.047-0.468,0.074-0.702
	c0.031-0.282,0.089-0.561,0.089-0.846v-0.034c0-0.729-0.133-1.42-0.32-2.089c-0.044-0.158-0.09-0.309-0.144-0.463
	c-0.226-0.646-0.508-1.265-0.888-1.82c-0.04-0.059-0.094-0.106-0.136-0.164c-0.357-0.492-0.776-0.927-1.236-1.322
	c-0.148-0.128-0.29-0.251-0.448-0.368c-0.521-0.384-1.08-0.715-1.689-0.96c-0.052-0.021-0.091-0.062-0.143-0.082
	c-14.177-5.408-26.89-13.679-37.787-24.572l-37.814-37.815l37.503-37.505H516.49z M832.524,246.65
	c0.654,1.328,1.317,2.663,1.964,3.983c2.703,5.508,5.322,10.805,8.065,16.008h-27.927
	C821.162,260.542,827.164,253.857,832.524,246.65z M794.859,282.196h56.684c2.244,3.492,4.498,6.738,6.812,9.739
	c0.456,0.587,0.952,1.202,1.463,1.836c0.895,1.104,2.464,3.045,3.05,4.135c-0.019,0.147-0.025,0.286-0.043,0.432h-64.689
	c-4.296,0-7.778,3.484-7.778,7.778v34.419c-7.965,4.409-15.24,9.888-21.676,16.325c-0.757,0.756-1.453,1.555-2.182,2.331
	c0.055-2.103,0.134-4.174,0.266-6.182l3.76-57.876C779.039,291.595,787.181,287.249,794.859,282.196z M776.054,652.408
	c-2.316-0.35-4.634-0.591-6.951-0.745c1.652-2.11,2.766-3.78,3.258-4.55c11.646-14.87,22.103-26.22,32.878-35.692l13.563-11.908
	c2,0.619,4.038,1.15,6.124,1.575v19.134C805.405,624.601,788.048,635.887,776.054,652.408z M875.99,697.929
	c-10.493-2.928-21.393-4.48-32.466-4.48c-11.478,0-22.572,1.647-33.095,4.66c1.577-16.707,15.672-29.823,32.784-29.823
	C860.265,668.285,874.33,681.307,875.99,697.929z M910.881,783.553c-14.286-1.815-28.663-0.068-41.917,4.936
	c5.053-13.429,6.695-27.849,4.923-41.929c8.134,3.562,15.608,8.61,21.997,14.997C902.27,767.944,907.317,775.418,910.881,783.553z
	 M293.087,448.708c-6.681-1.314-12.749-4.526-17.624-9.4c-13.449-13.452-13.449-35.337,0-48.79
	c13.437-13.439,35.314-13.422,48.765,0.024c4.876,4.878,8.085,10.943,9.398,17.621c-3.715,10.835-5.967,22.21-6.643,33.891
	C315.303,442.732,303.926,444.987,293.087,448.708z M250.389,473.615c-1.676-1.412-3.289-2.883-4.82-4.412
	c-14.502-14.502-22.489-33.785-22.489-54.289c0-20.508,7.987-39.787,22.489-54.289c14.504-14.502,33.783-22.489,54.289-22.489
	s39.785,7.987,54.289,22.493c1.525,1.523,2.995,3.134,4.407,4.809c-6.306,7.128-11.736,14.849-16.232,23.04
	c-2-3.201-4.362-6.201-7.096-8.934c-19.515-19.515-51.258-19.522-70.763-0.024c-19.514,19.515-19.514,51.271,0.002,70.786
	c2.736,2.737,5.741,5.099,8.947,7.1C265.23,461.897,257.516,467.32,250.389,473.615z M279.228,245.107
	c4.405,0,8.549,1.718,11.667,4.834c3.116,3.116,4.832,7.258,4.832,11.667s-1.717,8.551-4.832,11.667c0,0,0,0-0.002,0
	c-3.116,3.116-7.26,4.834-11.665,4.834c-4.407,0-8.551-1.718-11.668-4.834c-3.116-3.116-4.832-7.258-4.832-11.667
	s1.717-8.551,4.834-11.667C270.677,246.825,274.821,245.107,279.228,245.107z M301.895,238.943
	c-3.355-3.356-7.336-5.841-11.664-7.422c7.647-9.113,13.359-19.497,16.944-30.674l39.959,96.2
	c-15.684-6.323-32.538-9.413-49.768-9.023c1.601-1.105,3.123-2.347,4.528-3.752c0,0,0,0,0.002,0
	c6.053-6.053,9.388-14.104,9.388-22.665C311.283,253.043,307.947,244.995,301.895,238.943z M509.12,216.168
	c8.068,6.556,16.859,11.996,26.269,16.297c-5.104,13.782-7.71,28.263-7.71,43.165v19.615c-4.746-6.233-10.299-11.932-16.648-16.904
	c-16.842-13.189-29.761-25.112-40.654-37.528l-10.433-11.889c-0.05-0.057-0.116-0.095-0.168-0.15
	c-0.295-0.316-0.619-0.599-0.962-0.863c-0.044-0.032-0.082-0.073-0.126-0.104c-1.289-0.949-2.867-1.529-4.591-1.529
	c-1.724,0-3.302,0.579-4.591,1.529c-0.045,0.031-0.082,0.072-0.126,0.104c-0.343,0.264-0.667,0.547-0.962,0.863
	c-0.052,0.055-0.117,0.093-0.168,0.15l-10.431,11.889c-3.06,3.487-6.303,6.936-9.725,10.384l-16.567-16.547
	c2.906-4.822,4.609-10.447,4.609-16.475c0-17.675-14.381-32.053-32.056-32.053c-4.829,0-9.394,1.104-13.505,3.024
	c-1.043-11.954-4.385-23.425-9.809-33.91L509.12,216.168z M719.007,315.229l-2.26,34.523c-1.004,15.285-0.331,31.729,2.115,51.747
	c3.462,28.404-3.843,56.261-20.601,79.039c-6.935-2.023-14.16-3.223-21.548-3.575c15.477-17.019,23.952-38.876,23.952-62.035
	c0-22.051-7.698-42.906-21.789-59.543L719.007,315.229z M732.655,521.825c12.552,16.026,24.083,28.699,35.979,39.564h-47.035
	c-3.756-23.911-24.439-42.278-49.387-42.278c-3.9,0-7.724,0.459-11.432,1.323c2.635-9.05,4.295-18.388,4.885-27.753
	c2.192-0.188,4.379-0.289,6.546-0.289C695.978,492.391,718.008,503.12,732.655,521.825z M804.134,392.303
	c5.805-5.804,12.997-9.969,20.793-12.16v16.751c0,8.547,1.198,16.971,3.479,25.151c-7.386,4.16-14.189,9.271-20.24,15.325
	l-11.853,11.853C785.903,430.948,788.691,407.747,804.134,392.303z M819.166,448.368c4.449-4.452,9.396-8.274,14.716-11.504
	c8.608,18.255,22.932,33.271,41.067,42.821c2.018,1.064,4.089,2.025,6.182,2.936c-2.09,0.91-4.157,1.871-6.172,2.934
	c-18.125,9.536-32.452,24.56-41.071,42.842c-5.311-3.23-10.259-7.059-14.724-11.525l-34.252-34.25L819.166,448.368z M796.33,516.036
	l11.835,11.834c6.066,6.069,12.868,11.186,20.242,15.346c-2.282,8.17-3.48,16.593-3.48,25.146v16.759
	c-1.461-0.401-2.891-0.865-4.288-1.396c-0.307-0.155-0.627-0.268-0.949-0.381c-17.475-7.075-29.469-24.095-29.469-43.996
	C790.221,531.135,792.362,523.101,796.33,516.036z M826.203,710.46c-3.87,6.049-6.924,12.469-9.157,19.111
	c-12.661,4.262-24.298,11.444-33.843,20.989c-10.122,10.12-17.55,22.519-21.712,36.061c-7.553,2.31-14.742,5.661-21.417,9.948
	C747.426,752.587,782.219,717.801,826.203,710.46z M843.527,802.253c-20.697-26.068-20.697-63.289,0-89.356
	C864.224,738.964,864.224,776.185,843.527,802.253z M915.468,800.081c0.026,0.18,0.048,0.365,0.074,0.546
	c0.252,1.782,0.483,3.597,0.701,5.441c0.064,0.546,0.128,1.093,0.19,1.646c0.233,2.085,0.452,4.199,0.646,6.391
	c0.188,2.167,0.313,4.201,0.41,6.178c0.028,0.581,0.046,1.143,0.066,1.709c0.052,1.446,0.078,2.842,0.078,4.194
	c0,0.351,0.003,0.707,0,1.052c-21.926,5.62-44.868,0.684-62.445-13.312C872.106,800.505,894.253,795.383,915.468,800.081z
	 M812.665,876.633c-6.776-3.417-12.961-7.887-18.464-13.391c-5.516-5.516-9.991-11.716-13.411-18.509
	c2.129,0.154,4.262,0.257,6.396,0.257c10.461,0,20.915-1.885,30.831-5.605c-3.668,9.738-5.605,20.153-5.606,30.872
	C812.411,872.398,812.514,874.52,812.665,876.633z M818.059,788.404c-9.739-3.669-20.155-5.606-30.873-5.606
	c-2.623,0-5.225,0.132-7.807,0.359c3.56-7.987,8.549-15.328,14.822-21.599c5.521-5.521,11.887-10.078,18.791-13.52
	C811.514,761.618,813.207,775.469,818.059,788.404z M768.996,800.669c0.193-0.03,0.377-0.089,0.565-0.135
	c5.695-1.43,11.601-2.181,17.624-2.181c16.428,0,32.017,5.476,44.682,15.559c-26.068,20.7-63.296,20.7-89.363,0
	C750.372,807.648,759.371,803.169,768.996,800.669z M710.285,678.453c0.034,0.073,0.057,0.147,0.094,0.219
	c7.948,18.019,10.95,37.941,8.484,58.151c-0.465,3.81-0.845,7.455-1.182,11.022c-0.012,0.138-0.034,0.273-0.039,0.412
	c-1.403,15.022-1.697,28.077-0.894,40.347l2.249,34.465l-40.133-40.134c14.093-16.633,21.792-37.485,21.792-59.53
	c0-23.162-8.478-45.018-23.96-62.035c7.406-0.352,14.649-1.556,21.6-3.587C703.08,664.291,707.075,671.22,710.285,678.453z
	 M581.185,696.247c11.545-0.675,22.882-2.903,33.831-6.654c6.71,1.301,12.804,4.519,17.697,9.412
	c6.52,6.519,10.109,15.188,10.105,24.403c-0.002,9.212-3.59,17.871-10.105,24.386c-6.508,6.508-15.159,10.094-24.359,10.094
	c-0.003,0-0.007,0-0.01,0c-9.209-0.003-17.871-3.595-24.395-10.117c-4.901-4.902-8.119-11.008-9.419-17.73
	C578.282,719.122,580.509,707.795,581.185,696.247z M611.766,674.277c-9.877,3.57-20.147,5.692-30.614,6.387
	c-1.285-20.729-7.506-40.507-18.12-57.958l80.765,33.437C634.202,663.921,623.475,670.017,611.766,674.277z M461.875,301.647
	v-47.036c10.858,11.889,23.53,23.42,39.566,35.978c18.703,14.651,29.432,36.681,29.432,60.443c0,2.161-0.1,4.344-0.287,6.53
	c-9.397,0.588-18.746,2.24-27.786,4.869c0.859-3.698,1.316-7.511,1.316-11.399C504.116,326.085,485.766,305.405,461.875,301.647z
	 M404.044,351.031c0,3.877,0.456,7.679,1.31,11.367c-8.961-2.612-18.251-4.234-27.743-4.824c-0.187-2.188-0.288-4.374-0.288-6.543
	c0-23.762,10.726-45.792,29.43-60.443c10.053-7.874,18.759-15.338,26.556-22.742c0.08-0.073,0.171-0.126,0.248-0.203
	c0.043-0.043,0.072-0.095,0.114-0.14c4.504-4.292,8.704-8.571,12.65-12.892v47.034C422.41,305.402,404.044,326.083,404.044,351.031z
	 M411.295,380.9v64.62l-29.859-72.05C391.778,374.557,401.8,377.081,411.295,380.9z M615.06,448.698
	c-10.83-3.715-22.196-5.966-33.864-6.644c-0.677-11.692-2.932-23.076-6.653-33.919c1.315-6.671,4.525-12.731,9.397-17.604
	c6.515-6.519,15.177-10.107,24.39-10.107c0.003,0,0.007,0,0.01,0c9.212,0.003,17.873,3.592,24.387,10.107
	c13.437,13.439,13.427,35.314-0.024,48.766C627.821,444.177,621.746,447.39,615.06,448.698z M556.968,405.741l-45.7,45.699
	l29.824-72.034C547.636,387.477,552.955,396.331,556.968,405.741z M526.696,373.513l-29.815,72.011v-64.637
	C506.379,377.084,516.472,374.603,526.696,373.513z M562.518,422.188c1.623,6.472,2.642,13.132,3.087,19.904
	c-9.524,0.591-18.847,2.22-27.836,4.845L562.518,422.188z M581.157,457.645c10.364,0.683,20.459,2.751,30.052,6.166
	c0.259,0.114,0.52,0.21,0.788,0.295c11.457,4.177,22.187,10.243,31.814,18.038l-80.787,33.477
	C573.647,498.162,579.871,478.379,581.157,457.645z M633.804,569.144c7.69-8.64,14.13-18.224,19.215-28.604
	c5.672-3.834,12.263-5.875,19.193-5.875c19.022,0,34.499,15.478,34.499,34.5c0,19.002-15.476,34.463-34.499,34.463
	c-6.914,0-13.487-2.03-19.146-5.84C648.03,587.505,641.581,577.876,633.804,569.144z M649.712,496.533
	c-1.31,12.235-4.627,24.327-9.816,35.467c-4.454,9.497-10.256,18.227-17.176,26.125c-15.56-13.73-33.93-23.302-53.76-28.127
	L649.712,496.533z M622.756,580.143c6.972,7.952,12.727,16.724,17.132,26.107c0.055,0.118,0.097,0.242,0.158,0.358
	c5.131,11.032,8.42,22.879,9.714,35.165l-80.823-33.461C588.79,603.484,607.181,593.898,622.756,580.143z M672.212,645.941
	c-2.163,0-4.347-0.1-6.534-0.289c-0.588-9.503-2.212-18.805-4.828-27.777c3.686,0.853,7.487,1.309,11.363,1.309
	c24.946,0,45.628-18.351,49.386-42.241h47.036c-11.889,10.856-23.422,23.531-35.979,39.564
	C718.008,635.213,695.978,645.941,672.212,645.941z M662.62,360.639c14.502,14.502,22.489,33.781,22.489,54.289
	c0,20.504-7.987,39.783-22.493,54.289c-1.526,1.527-3.137,2.998-4.813,4.41c-7.136-6.305-14.861-11.734-23.053-16.23
	c3.207-2.002,6.213-4.364,8.95-7.102c19.517-19.515,19.527-51.261,0.025-70.763c-9.45-9.452-22.017-14.661-35.383-14.664
	c-0.005,0-0.008,0-0.013,0c-13.368,0-25.936,5.209-35.39,14.664c-2.733,2.732-5.092,5.733-7.092,8.933
	c-4.492-8.181-9.916-15.892-16.213-23.013c1.412-1.676,2.883-3.287,4.41-4.814c14.501-14.502,33.781-22.489,54.286-22.489
	C628.837,338.149,648.118,346.137,662.62,360.639z M384.081,201.678c9.098,0,16.501,7.4,16.501,16.497
	c0,9.098-7.403,16.501-16.501,16.501s-16.499-7.403-16.499-16.501C367.582,209.077,374.983,201.678,384.081,201.678z
	 M384.081,250.231c6.014,0,11.627-1.695,16.441-4.589l16.288,16.267c-5.938,5.338-12.414,10.765-19.65,16.432
	c-11.088,8.687-19.832,19.536-25.862,31.722c-0.888-0.61-1.77-1.231-2.67-1.816l-46.981-113.104
	c10.341,5.259,21.634,8.506,33.402,9.53c-1.92,4.11-3.023,8.674-3.023,13.502C352.026,235.85,366.405,250.231,384.081,250.231z
	 M367.068,379.432l29.842,72.012l-45.702-45.701C355.219,396.34,360.533,387.495,367.068,379.432z M426.85,388.621
	c5.713,3.423,11.14,7.384,16.232,11.844c-6.306,7.133-11.738,14.856-16.232,23.051V388.621z M425.436,370.174
	c-3.809-5.66-5.836-12.234-5.836-19.143c0-19.022,15.476-34.497,34.499-34.497c19.004,0,34.463,15.474,34.463,34.497
	c0,6.929-2.039,13.518-5.869,19.189c-10.383,5.079-19.97,11.52-28.609,19.206C445.352,381.654,435.721,375.208,425.436,370.174z
	 M481.325,388.677v34.858c-4.49-8.188-9.916-15.906-16.214-23.033C470.171,396.072,475.579,392.113,481.325,388.677z
	 M496.786,488.029c18.885-17.916,42.956-28.505,68.775-30.341c-1.837,25.815-12.427,49.888-30.343,68.776
	c-16.038,0.438-31.989,3.918-46.663,10.213c-0.631-0.67-1.28-1.32-1.948-1.951C492.882,520.017,496.349,504.055,496.786,488.029z
	 M538.642,541.921c27.122,0,52.753,9.63,73.053,27.228c-20.303,17.602-45.939,27.237-73.094,27.237
	c-5.467,0-10.904-0.402-16.197-1.198c-6.315-0.92-12.527-2.387-18.545-4.356c0.299-3.999,0.394-8.149,0.238-12.576
	c-0.083-2.54-0.259-7.727-2.71-11.44c-0.284-5.916-1.647-11.632-4.015-16.937C510.425,544.678,524.527,541.921,538.642,541.921z
	 M496.685,647.369c-0.194-4.001-0.555-8.06-1.148-12.004c-0.197-1.561-0.498-3.123-0.791-4.686
	c0.699-4.198,2.061-9.275,4.317-15.944c0.935-2.77,1.733-5.572,2.408-8.382c6.095,1.858,12.335,3.3,18.656,4.22
	c4.909,0.741,9.966,1.103,15.063,1.241c17.929,18.883,28.526,42.964,30.366,68.791c-22.279-1.575-43.184-9.607-60.886-23.54
	C500.873,653.476,498.323,650.351,496.685,647.369z M565.601,696.219c-0.447,6.72-1.49,13.353-3.129,19.849L537.8,691.396
	C546.779,694.021,556.083,695.633,565.601,696.219z M565.828,749.79c2.006,3.218,4.376,6.233,7.122,8.979
	c9.459,9.459,22.027,14.671,35.388,14.674c0.005,0,0.01,0,0.015,0c13.356,0,25.914-5.202,35.359-14.651
	c9.451-9.449,14.658-22.013,14.661-35.381c0.005-13.371-5.202-25.946-14.661-35.405c-2.743-2.744-5.757-5.111-8.971-7.116
	c8.238-4.51,15.945-9.906,23.042-16.182c1.683,1.422,3.294,2.893,4.812,4.41c14.512,14.499,22.505,33.778,22.505,54.286
	c0,20.504-7.992,39.783-22.506,54.286c-29.251,29.243-76.43,29.815-106.504,1.863c-0.36-3.864-1.175-7.643-2.557-11.371
	C558.185,762.4,562.284,756.252,565.828,749.79z M554.19,798.195c16.087,11.645,35.107,17.476,54.131,17.476
	c21.213,0,42.411-7.264,59.538-21.744l40.164,40.166l-34.494-2.252c-15.247-1.03-31.697-0.375-51.767,2.079
	c-26.497,3.249-52.776-2.998-74.719-17.579C549.795,810.587,552.431,804.523,554.19,798.195z M738.661,872.894
	c10.954,19.323,27.066,35.4,46.465,46.252c-5.901,4.917-13.261,7.601-21.038,7.601c-8.801,0-17.073-3.426-23.294-9.648
	c-6.222-6.222-9.648-14.489-9.648-23.276C731.145,886.097,733.796,878.778,738.661,872.894z M740.088,831.251
	c7.061,4.516,14.626,7.93,22.458,10.216c4.344,12.268,11.413,23.532,20.656,32.774c9.231,9.231,20.477,16.295,32.722,20.639
	c2.317,7.942,5.765,15.497,10.251,22.485C782.306,909.988,747.477,875.043,740.088,831.251z M843.123,914.39
	c-9.814-12.568-15.156-27.935-15.156-44.133c0-16.433,5.475-32.022,15.561-44.685c10.085,12.662,15.559,28.252,15.559,44.685
	c0,6.135-0.767,12.152-2.248,17.945c-0.01,0.052-0.03,0.1-0.04,0.153c-1.801,6.974-4.693,13.591-8.499,19.716
	C846.734,910.101,845.004,912.259,843.123,914.39z M869.076,839.485c9.749,3.677,20.089,5.593,30.57,5.593
	c3.243,0,6.499-0.25,9.753-0.616c-3.441,6.9-7.999,13.263-13.516,18.781c-6.273,6.271-13.614,11.262-21.601,14.82
	c0.227-2.582,0.359-5.183,0.359-7.806C874.642,859.575,872.719,849.194,869.076,839.485z M738.26,755.427
	c-2.035-2.451-3.662-5.166-4.907-8.092c0.281-2.805,0.588-5.661,0.95-8.628c0.848-6.949,1.103-13.865,0.836-20.705
	c1.392-2.441,3.123-4.734,5.203-6.817c12.053-12.052,31.2-12.783,44.118-2.203C765.119,719.912,749.086,736.02,738.26,755.427z
	 M713.2,651.957c12.179-6.03,23.022-14.771,31.703-25.855c13.189-16.845,25.116-29.764,37.53-40.658l6.66-5.843
	c4.077,4.937,8.878,9.25,14.3,12.744l-8.418,7.39c-11.599,10.195-22.758,22.307-35.113,38.112c-0.189,0.243-0.365,0.496-0.525,0.763
	c-0.057,0.095-6.007,9.651-14.69,14.425c-0.496,0.273-0.944,0.596-1.354,0.952c-8.046,2.028-15.791,5.247-22.961,9.641
	C718.181,659.632,715.798,655.739,713.2,651.957z M882.214,499.315c11.047-5.833,23.578-8.915,36.235-8.915h8.411
	c1.229,7.568,4.196,14.543,8.505,20.513l-3.669,3.682l-2.278,2.278c-8.944,8.942-19.995,15.62-31.977,19.316
	c-16.301,5.075-33.631,4.662-49.538-1.053C855.084,519.851,867.054,507.292,882.214,499.315z M933.5,452.461l1.847,1.853
	c-4.413,6.103-7.306,13.093-8.5,20.53h-8.399h-0.015c-12.818,0-25.006-3.001-36.234-8.922
	c-15.166-7.987-27.137-20.538-34.306-35.797c15.883-5.723,33.22-6.142,49.554-1.073c11.979,3.72,23.034,10.401,31.963,19.313
	L933.5,452.461z M832.705,332.907c-4.296,0-7.778,3.484-7.778,7.778v23.491c-11.96,2.49-23.063,8.399-31.791,17.129
	c-21.539,21.537-24.513,54.452-8.11,79.205l-16.613,16.613c-1.46,1.458-2.279,3.437-2.279,5.499s0.82,4.041,2.279,5.499
	l16.627,16.626c-6.701,10.22-10.375,22.252-10.375,34.601c0,2.274,0.144,4.513,0.374,6.725c-9.839-9.431-19.587-20.37-30.137-33.843
	c-1.337-1.708-2.742-3.34-4.179-4.936c22.837-32.474,32.742-71.925,27.904-111.858c-0.504-4.148-0.917-8.082-1.246-11.841
	c3.379-5.618,7.481-10.916,12.302-15.735c6.377-6.38,13.738-11.636,21.877-15.626c2.665-1.306,4.355-4.017,4.355-6.984v-31.354
	h57.337c1.317,7.046,4.09,13.287,7.568,19.012H832.705z M751.246,351.993c-0.603,9.109-0.46,18.963,0.425,30.231
	c0.005,0.078,0.01,0.154,0.018,0.23c0.372,4.693,0.86,9.607,1.497,14.855c4.282,35.345-4.21,70.255-23.934,99.23
	c-5.015-3.956-10.398-7.368-16.08-10.179c17.409-25.336,24.909-55.753,21.132-86.745c-2.326-19.033-2.972-34.554-2.034-48.847
	l3.006-45.917c6.549-0.961,12.998-2.344,19.305-4.159L751.246,351.993z M667.877,344.384c-16.639-14.093-37.496-21.79-59.546-21.79
	c-23.156,0-45.011,8.47-62.03,23.942c-0.352-7.395-1.554-14.626-3.581-21.568c9.052-6.656,18.908-11.818,29.285-15.404
	c0.395-0.105,0.785-0.22,1.153-0.383c15.399-5.13,31.908-6.823,48.62-4.776c20.033,2.407,36.478,3.079,51.772,2.11l20.686-1.37
	c3.863,0.528,7.813,0.849,11.797,1.057L667.877,344.384z M624.614,289.069c-0.327-0.039-0.636-0.068-0.965-0.108
	c-15.625-1.911-31.094-0.936-45.846,2.699v-16.03c0-10.543,2.133-20.68,6.362-30.166l4.013-9.145
	c11.871,19.111,27.979,35.408,47.092,47.469C631.852,285.847,628.291,287.602,624.614,289.069z M327.748,138.619
	c1.695,1.399,3.352,2.858,4.931,4.411l0.412,0.412c0.002,0.002,0.004,0.003,0.005,0.005c12.423,12.426,20.025,28.386,21.861,45.608
	c-16.283-1.732-31.382-8.649-43.454-19.852c-0.137-3.653-0.483-7.32-1.07-10.979C317.693,153.179,323.663,146.444,327.748,138.619z
	 M295.678,165.506c0.226,2.376,0.362,4.765,0.362,7.181c0,17.584-5.914,34.257-16.803,47.743
	c-10.095-12.498-15.902-27.825-16.667-44.011l0.611-1.539c2.233-2.456,4.302-5.054,6.249-7.752c3.217,0.591,6.493,0.923,9.81,0.923
	C284.882,168.052,290.401,167.175,295.678,165.506z M268.232,231.518c-4.331,1.581-8.315,4.067-11.67,7.424
	c-6.054,6.053-9.39,14.101-9.39,22.665c0,8.564,3.335,16.612,9.388,22.665c2.747,2.747,5.919,4.902,9.349,6.472
	c-11.031,0.76-20.907,0.834-30.219,0.219l-18.093-1.18l34.426-86.751C255.637,213.37,261.095,223.014,268.232,231.518z
	 M234.67,306.485c15.243,1.009,31.692,0.344,51.757-2.093c28.42-3.45,56.278,3.838,79.049,20.574
	c-2.027,6.941-3.229,14.171-3.581,21.564c-17.02-15.478-38.877-23.95-62.037-23.95c-22.052,0-42.911,7.699-59.55,21.795
	l-40.141-40.141L234.67,306.485z M296.15,464.117c0.247-0.08,0.487-0.171,0.724-0.275c9.621-3.434,19.748-5.512,30.146-6.197
	c1.286,20.732,7.509,40.512,18.129,57.966l-80.8-33.454C273.971,474.361,284.698,468.295,296.15,464.117z M345.659,422.188
	l24.749,24.749c-8.989-2.626-18.311-4.254-27.835-4.845C343.017,435.32,344.036,428.661,345.659,422.188z M716.433,884.89
	c-0.541,2.918-0.844,5.902-0.844,8.934c0,12.943,5.045,25.116,14.203,34.274c9.16,9.162,21.338,14.205,34.294,14.205
	c11.678,0,22.702-4.129,31.474-11.645c0.431,5.163,1.643,10.106,3.57,14.686h-45.31c-3.101,0-6.284,0.122-9.504,0.358
	c-2.015-2.35-4.162-4.662-6.498-6.998l-56.09-56.088L716.433,884.89z M811.077,929.876c6.698,1.889,13.628,3.195,20.734,3.888
	c0.691,4.053,2.797,7.66,4.064,9.829c0.516,0.881,1.028,1.745,1.431,2.559c2.503,5.087,4.171,9.437,5.161,13.318
	C826.043,958.782,812.682,946.052,811.077,929.876z M869.664,728.518c-2.193-6.258-5.136-12.307-8.793-18.027
	c6.624,1.102,13.12,2.787,19.386,5.126c0.065,0.028,0.135,0.046,0.202,0.072c6.151,2.312,12.062,5.264,17.714,8.724
	c2.344,7.928,4.463,15.542,5.569,23.213C893.924,738.72,882.288,732.198,869.664,728.518z M897.168,698.485
	c-1.148,1.003-2.009,2.35-2.412,3.919c-0.189,0.733-0.327,1.49-0.476,2.242c-0.88-0.409-1.781-0.765-2.67-1.152
	c0.035-0.756,0.102-1.5,0.102-2.268c0-9.4-2.733-18.155-7.382-25.595c5.833,3.433,12.144,5.951,18.784,7.347
	C900.73,687.983,898.724,693.167,897.168,698.485z M843.213,652.73c-25.478,0-46.385,19.762-48.308,44.753
	c-17.918-15.176-44.315-15.262-62.318-0.227c-1.375-6.6-3.27-13.07-5.692-19.357c15.009-9.779,33.312-13.195,51.101-9.34
	c0.536,0.113,1.071,0.167,1.598,0.17c0.014,0,0.029,0.006,0.043,0.006c0.096,0,0.188-0.032,0.284-0.035
	c0.479-0.018,0.949-0.072,1.408-0.174c0.199-0.045,0.389-0.111,0.584-0.17c0.372-0.115,0.73-0.251,1.079-0.419
	c0.191-0.091,0.377-0.181,0.56-0.289c0.395-0.23,0.764-0.497,1.113-0.793c0.098-0.083,0.206-0.147,0.299-0.235
	c0.438-0.409,0.819-0.877,1.155-1.385c0.026-0.041,0.064-0.068,0.09-0.108c12.487-19.667,33.796-31.408,57.005-31.408
	c3.884,0,7.708,0.349,11.432,0.998c1.819,8.339,5.299,16.245,10.275,23.205C858.38,654.629,851.022,652.73,843.213,652.73z
	 M840.482,616.808v-48.446c0-6.3,0.798-12.51,2.284-18.569c10.156,3.636,20.784,5.495,31.454,5.495
	c9.349,0,18.725-1.408,27.826-4.24c2.197-0.678,4.356-1.467,6.496-2.309c-0.841,2.134-1.629,4.288-2.307,6.478
	c-6.074,19.516-5.589,40.264,1.244,59.322c-6.018,1.474-12.214,2.268-18.529,2.268H840.482z M922.156,609.387
	c-5.727-15.909-6.142-33.243-1.064-49.558c3.75-12.129,10.254-22.878,19.34-31.962l3.475-3.486l2.462-2.462
	c5.973,4.315,12.951,7.285,20.524,8.515v8.408c0,12.642-3.092,25.18-8.951,36.279C950.017,590.234,937.474,602.19,922.156,609.387z
	 M930.684,409.766c6.752,6.387,12.247,11.775,16.433,18.128c2.535,3.804,4.307,7.664,5.424,11.645
	c-2.148,1.105-4.205,2.376-6.172,3.794l-2.403-2.408l-3.553-3.566c-9.071-9.04-15.571-19.785-19.325-31.955
	c-0.439-1.413-0.799-2.847-1.157-4.281C923.813,404.003,927.488,406.743,930.684,409.766z M902.133,385.389
	c0.29,8.388,1.624,16.664,4.097,24.617c0.679,2.199,1.468,4.361,2.31,6.502c-2.135-0.842-4.289-1.633-6.481-2.313
	c-19.54-6.052-40.277-5.573-59.301,1.248c-1.481-6.059-2.277-12.263-2.277-18.549v-48.432h41.794
	c0.505,0.616,0.996,1.238,1.502,1.853c2.179,2.647,4.358,5.293,6.424,7.99c0.068,0.091,0.138,0.179,0.211,0.267
	c0.034,0.044,0.071,0.088,0.106,0.132c0.572,0.743,1.269,1.495,1.983,2.238c0.066,0.068,0.133,0.138,0.201,0.206
	c0.172,3.403,0.714,6.586,1.629,9.621C895.987,376.514,898.778,381.261,902.133,385.389z M801.851,198.888
	c-2.92,6.42-6.472,12.398-10.568,17.894c-1.365-8.425-4.08-16.399-7.906-23.706c1.501-2.868,2.804-5.827,3.934-8.852
	L801.851,198.888z M776.204,221.065c-28.09-3.727-50.397-26.034-54.122-54.124C750.172,170.668,772.479,192.975,776.204,221.065z
	 M713.756,192.68c4.478,9.266,10.727,17.518,18.299,24.328c-5.878,1.779-11.993,2.699-18.299,2.699s-12.421-0.919-18.299-2.699
	C703.029,210.198,709.279,201.946,713.756,192.68z M651.308,221.065c3.725-28.09,26.032-50.397,54.122-54.124
	C701.705,195.031,679.398,217.338,651.308,221.065z M680.215,227.765c10.443,4.909,21.945,7.498,33.541,7.498
	c11.596,0,23.098-2.589,33.541-7.498c7.578,4.096,15.903,6.975,24.711,8.393c-16.384,12.32-36.619,19.387-58.252,19.387
	c-21.783,0-41.908-7.228-58.111-19.412C664.401,234.707,672.678,231.839,680.215,227.765z M762.636,159.339l12.279,12.384
	c-0.516,2.113-1.12,4.201-1.851,6.246c-6.724-7.745-14.931-14.163-24.182-18.808c0.557,0.063,1.081,0.149,1.642,0.209
	C755.179,159.848,759.137,159.848,762.636,159.339z M707.435,151.115c-21.102,1.69-39.869,11.746-52.985,26.853
	c-2.423-6.773-3.69-13.96-3.69-21.255c0-9.025,1.957-17.919,5.648-26.031c4.664,0.552,9.836,2.84,13.979,5.121
	C681.936,142.17,694.129,147.223,707.435,151.115z M630.858,165.776c1.656-1.111,3.178-2.621,4.503-4.404
	c0.656,11.104,3.647,21.907,8.775,31.702c-3.817,7.289-6.527,15.242-7.895,23.644c-10.547-14.044-17.358-31.044-19.002-49.521
	c1.24,0.222,2.47,0.446,3.64,0.692C624.245,168.582,627.791,167.842,630.858,165.776z M601.42,164.366
	c3.004,59.362,52.242,106.734,112.336,106.734c42.092,0,79.675-22.944,99.073-59.353c3.976,5.746,7.791,12.026,11.677,19.236
	c-15.388,23.463-38.009,41.663-64.176,51.477c-10.581,4.01-21.748,6.633-32.942,7.778l-3.048,0.25
	c-3.332,0.28-6.892,0.422-10.583,0.422c-6.178,0-12.294-0.429-18.184-1.273c-0.103-0.014-0.206-0.027-0.309-0.037
	c-64.894-9.057-113.797-65.324-113.797-130.983c0-0.584,0.057-1.167,0.064-1.752C586.811,160.691,593.939,162.806,601.42,164.366z
	 M566.951,141.164c-0.68,5.765-1.04,11.613-1.04,17.452c0,11.522,1.352,22.785,3.906,33.626l-9.27-3.538
	c-9.606-3.666-18.241-9.29-25.669-16.717l-13.37-13.371l13.368-13.368c2.238-2.238,4.486-4.22,6.681-5.894
	c2.258-1.723,3.28-4.438,2.981-7.07C552.998,134.325,560.52,136.382,566.951,141.164z M434.165,74.935
	c12.981,2.721,32.338,5.158,50.425-5.124c11.177-6.306,15.312-4.426,17.905-1.739c4.684,4.831,6.324,12.659,5.011,23.954
	c-0.431,3.783-0.451,7.292-0.095,10.544c-1.159,0.969-2.31,1.949-3.455,2.986h-45.369c-1.386-5.588-4.232-10.726-8.407-14.901
	c0,0,0,0-0.002,0c-6.054-6.056-14.104-9.391-22.665-9.391c-8.563,0-16.614,3.335-22.667,9.391c-3.361,3.36-5.849,7.348-7.428,11.685
	c-7.872-6.61-16.692-11.755-26.183-15.352C392.099,74.421,412.711,70.464,434.165,74.935z M350.424,97.504
	c13.287,2.067,25.544,7.457,35.91,15.83c-12.736,10.294-28.309,16.08-44.782,16.71c-2.717-2.515-5.55-4.864-8.499-6.992
	c0.58-3.189,0.907-6.435,0.907-9.718c0-4.383-0.546-8.746-1.578-12.988C338.236,100.535,344.213,99.595,350.424,97.504z
	 M264.393,123.485c1.234-0.672,2.468-1.344,3.734-2.049c14.129-8.065,23.821-17.854,29.636-29.936
	c0.945-1.965,1.784-2.647,2.098-2.731c0.415-0.118,1.841,0.088,4.167,1.661c3.423,2.313,6.907,4.231,10.363,5.743
	c2.59,5.339,4.014,11.214,4.014,17.162c0,3.747-0.532,7.43-1.61,11.056c-0.346,1.225-0.783,2.478-1.335,3.831
	c-3.372,8.23-9.547,15.13-17.444,19.458c-1.342,0.749-2.54,1.333-3.754,1.823c-8.232,3.423-17.299,3.994-26.189,1.357
	c-1.008-0.27-2.054-0.628-3.295-1.138c-5.738-2.266-10.752-5.881-14.8-10.45C253.041,132.178,257.757,126.989,264.393,123.485z
	 M146.711,438.359c-0.125-0.155-0.246-0.317-0.373-0.476c-0.684-0.854-1.534-1.921-2.64-2.886
	c-3.202-2.829-3.128-5.577-2.096-12.716c0.68-4.716,1.452-10.056-0.346-15.485l-0.273-0.817
	c-3.646-10.853-4.875-14.509,1.521-22.577c14.712-18.573,17.389-43.436,6.827-63.326c-8.6-16.254-6.949-30.166,5.359-45.117
	c8.011-9.759,13.733-20.599,19.267-31.081c5.626-10.654,10.941-20.717,18.408-29.565c2.812-3.327,6.282-6.373,10.975-9.715
	c12.543-1.095,24.616-4.727,35.546-10.633l-37.603,94.755l-20.713-1.351c-0.072-0.003-0.142,0.013-0.213,0.011
	c-0.435-0.016-0.867,0.013-1.299,0.068c-0.061,0.008-0.122,0.008-0.182,0.018c-1.547,0.238-3.033,0.929-4.235,2.102
	c-0.024,0.024-0.054,0.039-0.078,0.062c-0.047,0.047-0.078,0.105-0.124,0.154c-0.333,0.35-0.639,0.717-0.894,1.109
	c-0.078,0.12-0.128,0.255-0.2,0.379c-0.195,0.34-0.383,0.681-0.523,1.041c-0.065,0.167-0.099,0.342-0.152,0.513
	c-0.103,0.332-0.203,0.663-0.261,1.004c-0.034,0.2-0.04,0.403-0.058,0.605c-0.029,0.324-0.052,0.646-0.04,0.972
	c0.003,0.078-0.015,0.154-0.01,0.233l3.619,55.086c0.918,14.279,0.27,29.815-2.037,48.888c-3.784,31.038,3.726,61.484,21.153,86.82
	c-2.288,1.139-4.526,2.363-6.707,3.682c-0.856-1.849-1.666-3.718-2.365-5.676C177.116,459.906,164.278,444.824,146.711,438.359z
	 M196.362,503.425c4.231-2.561,8.684-4.755,13.335-6.47c10.491-3.777,21.62-5.229,32.804-4.275
	c0.591,9.391,2.246,18.732,4.875,27.764c-3.703-0.862-7.522-1.32-11.415-1.32c-7.129,0-14.132,1.53-20.565,4.426
	C208.466,517.052,201.88,510.748,196.362,503.425z M283.299,542.343c-2.612,1.104-5.207,1.992-7.778,2.705
	c-2.69-4.131-5.107-8.482-7.205-12.991c-0.039-0.082-0.082-0.165-0.124-0.246c-0.007-0.014-0.014-0.028-0.021-0.041
	c-0.022-0.043-0.042-0.085-0.064-0.127c-5.096-10.993-8.357-22.947-9.653-35.087l80.782,33.447c-6.921,1.691-13.694,4-20.29,6.857
	C305.572,534.088,292.965,538.271,283.299,542.343z M403.787,518.128c-5.798,0.996-11.773,2.539-18.217,4.699
	c-3.048,0.999-6.349,2.198-10.204,3.692c-0.807-0.036-1.612-0.047-2.418-0.068c-17.909-18.886-28.495-42.954-30.331-68.763
	c25.829,1.837,49.91,12.434,68.798,30.364c0.138,5.087,0.499,10.138,1.232,15.004c0.736,5.095,1.794,10.13,3.134,15.081
	C411.689,517.524,407.607,517.48,403.787,518.128z M465.045,544.79c-2.962,0.196-5.541,1.148-7.614,1.911
	c-1.254,0.462-2.552,0.942-3.307,0.996l-2.049,0.176c-1.416,0.128-3.48,0.307-4.431,0.189c-0.201-0.432-0.57-1.472-0.797-3.578
	c-0.22-2.016-0.813-3.986-1.588-5.915c2.841-0.818,5.806-1.262,8.824-1.262c6.569,0,12.839,1.996,18.193,5.749
	c0.118,0.093,0.254,0.166,0.379,0.252c1.272,0.913,2.45,1.933,3.568,3.017C473.416,545.153,469.793,544.407,465.045,544.79z
	 M531.201,865.234c22.179,12.128,46.983,18.802,72.268,19.547l-25.994,25.993h-34.413
	C534.05,896.676,530.082,881.585,531.201,865.234z M574.163,1005.19c-0.365-3.448-0.744-6.671-1.14-9.722h9.375
	c6.298,0,12.491,0.793,18.523,2.27c-6.822,19.049-7.312,39.793-1.254,59.31c0.679,2.188,1.467,4.34,2.307,6.47
	c-1.163-0.457-2.341-0.874-3.522-1.284c-3.617-5.277-7.438-10.397-11.398-15.566C577.119,1033.692,575.684,1019.858,574.163,1005.19
	z M802.286,1008.383c-2.909,6.616-2.9,14.279,0,22.791v7.871c-7.412,6.334-13.727,13.228-18.791,19.206
	c-14.238-2.318-28.918-1.333-42.755,2.966c-2.196,0.679-4.354,1.469-6.492,2.31c0.841-2.134,1.63-4.288,2.31-6.479
	c6.059-19.513,5.571-40.258-1.252-59.31c6.015-1.476,12.207-2.27,18.518-2.27h48.464V1008.383z M639.791,1090.309l-5.925-5.944
	c-0.069-0.068-0.143-0.131-0.212-0.199c-8.822-8.87-15.438-19.831-19.129-31.729c-5.062-16.308-4.643-33.648,1.077-49.555
	c15.311,7.193,27.861,19.163,35.8,34.32c5.938,11.221,8.949,23.408,8.949,36.219v8.379
	C652.911,1082.995,645.912,1085.893,639.791,1090.309z M617.54,1120.884c0.832-13.236-1.775-24.75-5.755-34.677
	c3.873,2.648,7.512,5.643,10.856,8.947c0.073,0.073,0.14,0.153,0.213,0.226l5.94,5.952c-4.418,6.11-7.324,13.091-8.525,20.517
	h-2.685C617.578,1121.525,617.52,1121.219,617.54,1120.884z M675.906,1073.421c0-12.855,2.999-25.041,8.929-36.249
	c7.922-15.124,20.466-27.082,35.792-34.277c5.717,15.907,6.134,33.24,1.073,49.546c-3.717,11.987-10.401,23.03-19.341,31.952
	l-3.271,3.278l-2.646,2.646c-6.118-4.418-13.109-7.317-20.536-8.514V1073.421z M671.07,1029.924
	c-1.073,2.028-2.041,4.11-2.958,6.215c-0.914-2.095-1.878-4.166-2.947-6.184c-9.491-18.121-24.511-32.452-42.825-41.085
	c3.227-5.306,7.055-10.25,11.519-14.713l34.252-34.274l34.252,34.277c4.466,4.462,8.295,9.41,11.523,14.717
	C695.564,997.51,680.545,1011.834,671.07,1029.924z M681.849,1127.696c-11.461-4.601-21.848-0.675-31.018,2.795
	c-3.749,1.421-7.292,2.761-10.662,3.437c-1.528,0.313-3.099,0.476-4.667,0.501c-0.225-1.574-0.351-3.175-0.351-4.802
	c0-8.711,3.406-16.94,9.581-23.186c0.095-0.092,0.178-0.193,0.268-0.289c0.054-0.059,0.111-0.116,0.163-0.176
	c6.211-5.999,14.347-9.293,22.965-9.293c8.595,0,16.717,3.295,22.93,9.29c0.091,0.104,0.188,0.206,0.285,0.306
	c0.036,0.037,0.068,0.078,0.105,0.114c6.205,6.254,9.623,14.503,9.623,23.268c0,0.025-0.003,0.051-0.003,0.074
	C694.621,1130.966,688.402,1130.316,681.849,1127.696z M730.07,1115.432l-1.149,0.736c-3.15,2.014-6.156,3.902-9.183,5.681h-3.784
	c-1.199-7.419-4.104-14.403-8.525-20.518l2.567-2.572l3.386-3.386c8.914-8.915,19.963-15.589,31.96-19.299
	c8.597-2.669,17.58-3.783,26.506-3.399c-0.433,0.55-0.877,1.089-1.31,1.641C758.127,1090.117,746.407,1105.045,730.07,1115.432z
	 M822.122,990.546c-1.553,0.734-2.956,1.469-4.28,2.206v-5.062c0-4.294-3.482-7.778-7.778-7.778h-56.242
	c-8.583,0-17.001,1.197-25.119,3.473c-4.159-7.368-9.273-14.165-15.338-20.227l-39.751-39.777c-1.458-1.458-3.437-2.279-5.501-2.279
	s-4.042,0.82-5.501,2.279l-39.751,39.777c-6.065,6.063-11.18,12.859-15.338,20.226c-8.143-2.277-16.558-3.472-25.124-3.472h-11.869
	c-1.243-6.654-2.699-12.983-4.372-19.012h16.242c3.958,0,7.911,0.213,12.085,0.648c0.272,0.03,0.542,0.044,0.812,0.044
	c2.339,0,4.574-1.057,6.06-2.903c2.493-3.099,5.136-6.039,8.08-8.986l58.693-58.691l58.691,58.691
	c2.986,2.988,5.609,5.914,8.017,8.949c1.656,2.083,4.259,3.204,6.902,2.896c4.115-0.429,8.181-0.648,12.084-0.648h55.782
	c8.349,8.336,19.727,13.596,32.309,14.097C839.322,980.257,833.467,985.261,822.122,990.546z M912.477,666.55
	c-0.444,0.655-0.854,1.301-1.278,1.951c-10.781-1.119-20.805-5.864-28.575-13.631c-6.235-6.235-10.551-14.063-12.578-22.506h18.904
	c8.592,0,17.014-1.196,25.137-3.473c3.746,6.626,8.329,12.776,13.652,18.406C921.684,654.074,916.721,660.308,912.477,666.55z
	 M970.81,601.044c-4.199,5.337-9.138,10.934-15.559,17.625c-3.371,3.538-6.809,7.022-10.245,10.505
	c-2.182,2.213-4.402,4.463-6.618,6.74c-3.595-3.892-6.776-8.068-9.486-12.517c18.312-8.634,33.325-22.951,42.806-41.031
	c1.078-2.042,2.049-4.135,2.97-6.254c0.919,2.111,1.889,4.197,2.965,6.23c1.392,2.643,2.91,5.196,4.519,7.663
	C978.06,593.23,974.16,596.788,970.81,601.044z M1014.548,562.391c-3.754,6.586-9.496,11.427-16.967,16.67
	c-0.91,0.639-1.831,1.266-2.75,1.895c-1.212-1.893-2.365-3.847-3.431-5.872c-5.854-11.069-8.947-23.603-8.947-36.256v-8.382
	c7.442-1.195,14.435-4.091,20.54-8.508l5.923,5.922c5.768,5.796,10.429,12.299,14.029,19.306
	C1020.126,552.396,1017.341,557.453,1014.548,562.391z M1037.461,519.519c-1.386,2.676-2.787,5.349-4.177,8.024
	c-4.774-3.03-9.262-6.574-13.356-10.667l-5.936-5.935c4.417-6.106,7.314-13.099,8.51-20.541h8.381
	c6.929,0,13.743,0.954,20.373,2.739c-1.56,2.928-3.214,6.063-5.063,9.606C1043.258,508.318,1040.359,513.919,1037.461,519.519z"/>
</svg>
